<mxfile host="app.diagrams.net" agent="Mozilla/5.0 (Windows NT 10.0; Win64; x64) AppleWebKit/537.36 (KHTML, like Gecko) Chrome/130.0.0.0 Safari/537.36" version="24.8.3" pages="3">
  <diagram name="Track a workout" id="8NoYrPt9tfUzbH1BVsKt">
    <mxGraphModel dx="1674" dy="738" grid="1" gridSize="10" guides="1" tooltips="1" connect="1" arrows="1" fold="1" page="1" pageScale="1" pageWidth="827" pageHeight="1169" math="0" shadow="0">
      <root>
        <mxCell id="0" />
        <mxCell id="1" parent="0" />
        <mxCell id="YRO5fhOySbVVu_rboY6L-1" value="Select workout type" style="rounded=1;whiteSpace=wrap;html=1;" parent="1" vertex="1">
          <mxGeometry x="340" y="50" width="120" height="60" as="geometry" />
        </mxCell>
        <mxCell id="YRO5fhOySbVVu_rboY6L-23" style="edgeStyle=orthogonalEdgeStyle;rounded=0;orthogonalLoop=1;jettySize=auto;html=1;entryX=0;entryY=0.5;entryDx=0;entryDy=0;" parent="1" source="YRO5fhOySbVVu_rboY6L-2" target="YRO5fhOySbVVu_rboY6L-14" edge="1">
          <mxGeometry relative="1" as="geometry">
            <Array as="points">
              <mxPoint x="310" y="330" />
            </Array>
          </mxGeometry>
        </mxCell>
        <mxCell id="YRO5fhOySbVVu_rboY6L-2" value="Pre-made" style="rounded=0;whiteSpace=wrap;html=1;" parent="1" vertex="1">
          <mxGeometry x="250" y="150" width="120" height="60" as="geometry" />
        </mxCell>
        <mxCell id="YRO5fhOySbVVu_rboY6L-9" style="edgeStyle=orthogonalEdgeStyle;rounded=0;orthogonalLoop=1;jettySize=auto;html=1;entryX=0;entryY=0.5;entryDx=0;entryDy=0;" parent="1" source="YRO5fhOySbVVu_rboY6L-3" target="YRO5fhOySbVVu_rboY6L-7" edge="1">
          <mxGeometry relative="1" as="geometry" />
        </mxCell>
        <mxCell id="YRO5fhOySbVVu_rboY6L-10" style="edgeStyle=orthogonalEdgeStyle;rounded=0;orthogonalLoop=1;jettySize=auto;html=1;entryX=0;entryY=0.5;entryDx=0;entryDy=0;" parent="1" source="YRO5fhOySbVVu_rboY6L-3" target="YRO5fhOySbVVu_rboY6L-8" edge="1">
          <mxGeometry relative="1" as="geometry" />
        </mxCell>
        <mxCell id="YRO5fhOySbVVu_rboY6L-3" value="Custom" style="rounded=0;whiteSpace=wrap;html=1;" parent="1" vertex="1">
          <mxGeometry x="430" y="150" width="120" height="60" as="geometry" />
        </mxCell>
        <mxCell id="YRO5fhOySbVVu_rboY6L-5" value="" style="endArrow=classic;html=1;rounded=0;exitX=0.5;exitY=1;exitDx=0;exitDy=0;entryX=1;entryY=0.5;entryDx=0;entryDy=0;" parent="1" source="YRO5fhOySbVVu_rboY6L-1" target="YRO5fhOySbVVu_rboY6L-2" edge="1">
          <mxGeometry width="50" height="50" relative="1" as="geometry">
            <mxPoint x="380" y="160" as="sourcePoint" />
            <mxPoint x="400" y="180" as="targetPoint" />
            <Array as="points">
              <mxPoint x="400" y="180" />
            </Array>
          </mxGeometry>
        </mxCell>
        <mxCell id="YRO5fhOySbVVu_rboY6L-6" value="" style="endArrow=classic;html=1;rounded=0;entryX=0;entryY=0.5;entryDx=0;entryDy=0;" parent="1" target="YRO5fhOySbVVu_rboY6L-3" edge="1">
          <mxGeometry width="50" height="50" relative="1" as="geometry">
            <mxPoint x="400" y="110" as="sourcePoint" />
            <mxPoint x="430" y="110" as="targetPoint" />
            <Array as="points">
              <mxPoint x="400" y="180" />
            </Array>
          </mxGeometry>
        </mxCell>
        <mxCell id="YRO5fhOySbVVu_rboY6L-25" style="edgeStyle=orthogonalEdgeStyle;rounded=0;orthogonalLoop=1;jettySize=auto;html=1;entryX=1;entryY=0.5;entryDx=0;entryDy=0;" parent="1" source="YRO5fhOySbVVu_rboY6L-7" target="YRO5fhOySbVVu_rboY6L-14" edge="1">
          <mxGeometry relative="1" as="geometry">
            <Array as="points">
              <mxPoint x="950" y="180" />
              <mxPoint x="950" y="330" />
            </Array>
          </mxGeometry>
        </mxCell>
        <mxCell id="YRO5fhOySbVVu_rboY6L-7" value="Select from a workout library" style="rounded=0;whiteSpace=wrap;html=1;" parent="1" vertex="1">
          <mxGeometry x="640" y="150" width="120" height="60" as="geometry" />
        </mxCell>
        <mxCell id="YRO5fhOySbVVu_rboY6L-12" value="" style="edgeStyle=orthogonalEdgeStyle;rounded=0;orthogonalLoop=1;jettySize=auto;html=1;" parent="1" source="YRO5fhOySbVVu_rboY6L-8" target="YRO5fhOySbVVu_rboY6L-11" edge="1">
          <mxGeometry relative="1" as="geometry" />
        </mxCell>
        <mxCell id="YRO5fhOySbVVu_rboY6L-8" value="Empty workout" style="rounded=0;whiteSpace=wrap;html=1;" parent="1" vertex="1">
          <mxGeometry x="640" y="220" width="120" height="60" as="geometry" />
        </mxCell>
        <mxCell id="YRO5fhOySbVVu_rboY6L-26" style="edgeStyle=orthogonalEdgeStyle;rounded=0;orthogonalLoop=1;jettySize=auto;html=1;entryX=1;entryY=0.5;entryDx=0;entryDy=0;" parent="1" source="YRO5fhOySbVVu_rboY6L-11" target="YRO5fhOySbVVu_rboY6L-14" edge="1">
          <mxGeometry relative="1" as="geometry">
            <Array as="points">
              <mxPoint x="950" y="250" />
              <mxPoint x="950" y="330" />
            </Array>
          </mxGeometry>
        </mxCell>
        <mxCell id="YRO5fhOySbVVu_rboY6L-11" value="Add exercises" style="whiteSpace=wrap;html=1;rounded=0;" parent="1" vertex="1">
          <mxGeometry x="790" y="220" width="120" height="60" as="geometry" />
        </mxCell>
        <mxCell id="YRO5fhOySbVVu_rboY6L-22" value="" style="edgeStyle=orthogonalEdgeStyle;rounded=0;orthogonalLoop=1;jettySize=auto;html=1;" parent="1" source="YRO5fhOySbVVu_rboY6L-14" target="YRO5fhOySbVVu_rboY6L-21" edge="1">
          <mxGeometry relative="1" as="geometry" />
        </mxCell>
        <mxCell id="YRO5fhOySbVVu_rboY6L-14" value="Begin working out" style="rounded=1;whiteSpace=wrap;html=1;" parent="1" vertex="1">
          <mxGeometry x="440" y="300" width="120" height="60" as="geometry" />
        </mxCell>
        <mxCell id="YRO5fhOySbVVu_rboY6L-30" value="" style="edgeStyle=orthogonalEdgeStyle;rounded=0;orthogonalLoop=1;jettySize=auto;html=1;" parent="1" source="YRO5fhOySbVVu_rboY6L-21" target="YRO5fhOySbVVu_rboY6L-29" edge="1">
          <mxGeometry relative="1" as="geometry" />
        </mxCell>
        <mxCell id="YRO5fhOySbVVu_rboY6L-21" value="Warm up based on selected exercises" style="rounded=1;whiteSpace=wrap;html=1;arcSize=0;" parent="1" vertex="1">
          <mxGeometry x="440" y="390" width="120" height="60" as="geometry" />
        </mxCell>
        <mxCell id="YRO5fhOySbVVu_rboY6L-36" value="" style="edgeStyle=orthogonalEdgeStyle;rounded=0;orthogonalLoop=1;jettySize=auto;html=1;" parent="1" source="YRO5fhOySbVVu_rboY6L-29" target="YRO5fhOySbVVu_rboY6L-35" edge="1">
          <mxGeometry relative="1" as="geometry" />
        </mxCell>
        <mxCell id="YRO5fhOySbVVu_rboY6L-29" value="Execute exercises" style="whiteSpace=wrap;html=1;rounded=1;arcSize=0;" parent="1" vertex="1">
          <mxGeometry x="440" y="520" width="120" height="60" as="geometry" />
        </mxCell>
        <mxCell id="YRO5fhOySbVVu_rboY6L-33" value="" style="endArrow=classic;startArrow=classic;html=1;rounded=0;exitX=0;exitY=0.25;exitDx=0;exitDy=0;entryX=1;entryY=0.5;entryDx=0;entryDy=0;" parent="1" source="YRO5fhOySbVVu_rboY6L-29" target="YRO5fhOySbVVu_rboY6L-34" edge="1">
          <mxGeometry width="50" height="50" relative="1" as="geometry">
            <mxPoint x="630" y="490" as="sourcePoint" />
            <mxPoint x="400" y="550" as="targetPoint" />
          </mxGeometry>
        </mxCell>
        <mxCell id="YRO5fhOySbVVu_rboY6L-34" value="Tutorial videos for beginners" style="rounded=0;whiteSpace=wrap;html=1;" parent="1" vertex="1">
          <mxGeometry x="280" y="480" width="120" height="60" as="geometry" />
        </mxCell>
        <mxCell id="YRO5fhOySbVVu_rboY6L-41" value="" style="edgeStyle=orthogonalEdgeStyle;rounded=0;orthogonalLoop=1;jettySize=auto;html=1;" parent="1" source="YRO5fhOySbVVu_rboY6L-35" target="YRO5fhOySbVVu_rboY6L-40" edge="1">
          <mxGeometry relative="1" as="geometry" />
        </mxCell>
        <mxCell id="YRO5fhOySbVVu_rboY6L-35" value="Log weight used and reps done" style="whiteSpace=wrap;html=1;rounded=1;arcSize=0;" parent="1" vertex="1">
          <mxGeometry x="440" y="610" width="120" height="60" as="geometry" />
        </mxCell>
        <mxCell id="YRO5fhOySbVVu_rboY6L-37" value="Select special tecniques (for advanced lifters)" style="whiteSpace=wrap;html=1;rounded=1;arcSize=0;" parent="1" vertex="1">
          <mxGeometry x="600" y="480" width="120" height="60" as="geometry" />
        </mxCell>
        <mxCell id="YRO5fhOySbVVu_rboY6L-39" value="" style="endArrow=classic;startArrow=classic;html=1;rounded=0;exitX=1;exitY=0.25;exitDx=0;exitDy=0;entryX=0;entryY=0.5;entryDx=0;entryDy=0;" parent="1" source="YRO5fhOySbVVu_rboY6L-29" target="YRO5fhOySbVVu_rboY6L-37" edge="1">
          <mxGeometry width="50" height="50" relative="1" as="geometry">
            <mxPoint x="630" y="640" as="sourcePoint" />
            <mxPoint x="680" y="590" as="targetPoint" />
          </mxGeometry>
        </mxCell>
        <mxCell id="YRO5fhOySbVVu_rboY6L-42" style="edgeStyle=orthogonalEdgeStyle;rounded=0;orthogonalLoop=1;jettySize=auto;html=1;entryX=0;entryY=0.75;entryDx=0;entryDy=0;" parent="1" source="YRO5fhOySbVVu_rboY6L-40" target="YRO5fhOySbVVu_rboY6L-29" edge="1">
          <mxGeometry relative="1" as="geometry">
            <mxPoint x="340" y="610" as="targetPoint" />
            <Array as="points">
              <mxPoint x="370" y="740" />
              <mxPoint x="370" y="565" />
            </Array>
          </mxGeometry>
        </mxCell>
        <mxCell id="YRO5fhOySbVVu_rboY6L-47" value="" style="edgeStyle=orthogonalEdgeStyle;rounded=0;orthogonalLoop=1;jettySize=auto;html=1;" parent="1" source="YRO5fhOySbVVu_rboY6L-40" target="YRO5fhOySbVVu_rboY6L-46" edge="1">
          <mxGeometry relative="1" as="geometry" />
        </mxCell>
        <mxCell id="YRO5fhOySbVVu_rboY6L-40" value="Start and stop recovery timer" style="whiteSpace=wrap;html=1;rounded=1;arcSize=0;" parent="1" vertex="1">
          <mxGeometry x="440" y="700" width="120" height="60" as="geometry" />
        </mxCell>
        <mxCell id="YRO5fhOySbVVu_rboY6L-50" value="" style="edgeStyle=orthogonalEdgeStyle;rounded=0;orthogonalLoop=1;jettySize=auto;html=1;" parent="1" source="YRO5fhOySbVVu_rboY6L-43" target="YRO5fhOySbVVu_rboY6L-49" edge="1">
          <mxGeometry relative="1" as="geometry" />
        </mxCell>
        <mxCell id="YRO5fhOySbVVu_rboY6L-43" value="Finish workout" style="whiteSpace=wrap;html=1;rounded=1;arcSize=21;" parent="1" vertex="1">
          <mxGeometry x="440" y="880" width="120" height="60" as="geometry" />
        </mxCell>
        <mxCell id="YRO5fhOySbVVu_rboY6L-48" style="edgeStyle=orthogonalEdgeStyle;rounded=0;orthogonalLoop=1;jettySize=auto;html=1;entryX=0.5;entryY=0;entryDx=0;entryDy=0;" parent="1" source="YRO5fhOySbVVu_rboY6L-46" target="YRO5fhOySbVVu_rboY6L-43" edge="1">
          <mxGeometry relative="1" as="geometry" />
        </mxCell>
        <mxCell id="YRO5fhOySbVVu_rboY6L-46" value="Stretching based on exercises done" style="whiteSpace=wrap;html=1;rounded=1;arcSize=0;" parent="1" vertex="1">
          <mxGeometry x="440" y="790" width="120" height="60" as="geometry" />
        </mxCell>
        <mxCell id="YRO5fhOySbVVu_rboY6L-49" value="Review results" style="whiteSpace=wrap;html=1;rounded=1;arcSize=0;" parent="1" vertex="1">
          <mxGeometry x="440" y="970" width="120" height="60" as="geometry" />
        </mxCell>
      </root>
    </mxGraphModel>
  </diagram>
  <diagram id="LJulZPDWH3S3tg2BbOdy" name="Visualize past progress">
    <mxGraphModel dx="1395" dy="615" grid="1" gridSize="10" guides="1" tooltips="1" connect="1" arrows="1" fold="1" page="1" pageScale="1" pageWidth="827" pageHeight="1169" math="0" shadow="0">
      <root>
        <mxCell id="0" />
        <mxCell id="1" parent="0" />
        <mxCell id="lwms1DGgVDuMKfZqnkjE-7" style="edgeStyle=orthogonalEdgeStyle;rounded=0;orthogonalLoop=1;jettySize=auto;html=1;entryX=0;entryY=0.5;entryDx=0;entryDy=0;" edge="1" parent="1" source="lwms1DGgVDuMKfZqnkjE-1" target="lwms1DGgVDuMKfZqnkjE-2">
          <mxGeometry relative="1" as="geometry" />
        </mxCell>
        <mxCell id="lwms1DGgVDuMKfZqnkjE-8" style="edgeStyle=orthogonalEdgeStyle;rounded=0;orthogonalLoop=1;jettySize=auto;html=1;entryX=1;entryY=0.5;entryDx=0;entryDy=0;" edge="1" parent="1" source="lwms1DGgVDuMKfZqnkjE-1" target="lwms1DGgVDuMKfZqnkjE-3">
          <mxGeometry relative="1" as="geometry" />
        </mxCell>
        <mxCell id="lwms1DGgVDuMKfZqnkjE-19" value="" style="edgeStyle=orthogonalEdgeStyle;rounded=0;orthogonalLoop=1;jettySize=auto;html=1;" edge="1" parent="1" source="lwms1DGgVDuMKfZqnkjE-1" target="lwms1DGgVDuMKfZqnkjE-18">
          <mxGeometry relative="1" as="geometry" />
        </mxCell>
        <mxCell id="lwms1DGgVDuMKfZqnkjE-1" value="Select progress caregory" style="rounded=1;whiteSpace=wrap;html=1;" vertex="1" parent="1">
          <mxGeometry x="354" y="50" width="120" height="60" as="geometry" />
        </mxCell>
        <mxCell id="lwms1DGgVDuMKfZqnkjE-13" style="edgeStyle=orthogonalEdgeStyle;rounded=0;orthogonalLoop=1;jettySize=auto;html=1;entryX=1;entryY=0.5;entryDx=0;entryDy=0;" edge="1" parent="1" source="lwms1DGgVDuMKfZqnkjE-2" target="lwms1DGgVDuMKfZqnkjE-9">
          <mxGeometry relative="1" as="geometry" />
        </mxCell>
        <mxCell id="lwms1DGgVDuMKfZqnkjE-2" value="Per exercise" style="rounded=0;whiteSpace=wrap;html=1;" vertex="1" parent="1">
          <mxGeometry x="440" y="140" width="120" height="60" as="geometry" />
        </mxCell>
        <mxCell id="lwms1DGgVDuMKfZqnkjE-12" style="edgeStyle=orthogonalEdgeStyle;rounded=0;orthogonalLoop=1;jettySize=auto;html=1;entryX=0;entryY=0.5;entryDx=0;entryDy=0;" edge="1" parent="1" source="lwms1DGgVDuMKfZqnkjE-3" target="lwms1DGgVDuMKfZqnkjE-9">
          <mxGeometry relative="1" as="geometry" />
        </mxCell>
        <mxCell id="lwms1DGgVDuMKfZqnkjE-3" value="Overall strength" style="rounded=0;whiteSpace=wrap;html=1;" vertex="1" parent="1">
          <mxGeometry x="270" y="140" width="120" height="60" as="geometry" />
        </mxCell>
        <mxCell id="lwms1DGgVDuMKfZqnkjE-15" value="" style="edgeStyle=orthogonalEdgeStyle;rounded=0;orthogonalLoop=1;jettySize=auto;html=1;" edge="1" parent="1" source="lwms1DGgVDuMKfZqnkjE-9" target="lwms1DGgVDuMKfZqnkjE-14">
          <mxGeometry relative="1" as="geometry" />
        </mxCell>
        <mxCell id="lwms1DGgVDuMKfZqnkjE-9" value="Select desired timeframe" style="whiteSpace=wrap;html=1;rounded=0;" vertex="1" parent="1">
          <mxGeometry x="354" y="230" width="120" height="60" as="geometry" />
        </mxCell>
        <mxCell id="lwms1DGgVDuMKfZqnkjE-17" value="" style="edgeStyle=orthogonalEdgeStyle;rounded=0;orthogonalLoop=1;jettySize=auto;html=1;" edge="1" parent="1" source="lwms1DGgVDuMKfZqnkjE-14" target="lwms1DGgVDuMKfZqnkjE-16">
          <mxGeometry relative="1" as="geometry" />
        </mxCell>
        <mxCell id="lwms1DGgVDuMKfZqnkjE-14" value="Identify plateus" style="whiteSpace=wrap;html=1;rounded=0;" vertex="1" parent="1">
          <mxGeometry x="354" y="320" width="120" height="60" as="geometry" />
        </mxCell>
        <mxCell id="lwms1DGgVDuMKfZqnkjE-16" value="Get custom tips to improve" style="whiteSpace=wrap;html=1;rounded=0;" vertex="1" parent="1">
          <mxGeometry x="354" y="410" width="120" height="60" as="geometry" />
        </mxCell>
        <mxCell id="lwms1DGgVDuMKfZqnkjE-21" style="edgeStyle=orthogonalEdgeStyle;rounded=0;orthogonalLoop=1;jettySize=auto;html=1;entryX=0.5;entryY=0;entryDx=0;entryDy=0;" edge="1" parent="1" source="lwms1DGgVDuMKfZqnkjE-18" target="lwms1DGgVDuMKfZqnkjE-20">
          <mxGeometry relative="1" as="geometry" />
        </mxCell>
        <mxCell id="lwms1DGgVDuMKfZqnkjE-18" value="Body composition/ weight" style="whiteSpace=wrap;html=1;rounded=1;arcSize=0;" vertex="1" parent="1">
          <mxGeometry x="80" y="140" width="120" height="60" as="geometry" />
        </mxCell>
        <mxCell id="lwms1DGgVDuMKfZqnkjE-25" style="edgeStyle=orthogonalEdgeStyle;rounded=0;orthogonalLoop=1;jettySize=auto;html=1;entryX=0.5;entryY=0;entryDx=0;entryDy=0;" edge="1" parent="1" source="lwms1DGgVDuMKfZqnkjE-20" target="lwms1DGgVDuMKfZqnkjE-23">
          <mxGeometry relative="1" as="geometry" />
        </mxCell>
        <mxCell id="lwms1DGgVDuMKfZqnkjE-20" value="Select desired timeframe" style="whiteSpace=wrap;html=1;rounded=0;" vertex="1" parent="1">
          <mxGeometry x="80" y="230" width="120" height="60" as="geometry" />
        </mxCell>
        <mxCell id="lwms1DGgVDuMKfZqnkjE-22" value="" style="edgeStyle=orthogonalEdgeStyle;rounded=0;orthogonalLoop=1;jettySize=auto;html=1;" edge="1" parent="1" source="lwms1DGgVDuMKfZqnkjE-23" target="lwms1DGgVDuMKfZqnkjE-24">
          <mxGeometry relative="1" as="geometry" />
        </mxCell>
        <mxCell id="lwms1DGgVDuMKfZqnkjE-23" value="Identify plateus" style="whiteSpace=wrap;html=1;rounded=0;" vertex="1" parent="1">
          <mxGeometry x="80" y="320" width="120" height="60" as="geometry" />
        </mxCell>
        <mxCell id="lwms1DGgVDuMKfZqnkjE-24" value="Get custom tips to improve" style="whiteSpace=wrap;html=1;rounded=0;" vertex="1" parent="1">
          <mxGeometry x="80" y="410" width="120" height="60" as="geometry" />
        </mxCell>
      </root>
    </mxGraphModel>
  </diagram>
  <diagram id="QPlpd8v7lps718CxTsBc" name="Set goals and plans">
    <mxGraphModel dx="1154" dy="509" grid="1" gridSize="10" guides="1" tooltips="1" connect="1" arrows="1" fold="1" page="1" pageScale="1" pageWidth="827" pageHeight="1169" math="0" shadow="0">
      <root>
        <mxCell id="0" />
        <mxCell id="1" parent="0" />
        <mxCell id="qBp_ESi1bDnbtn0_1GRl-2" style="edgeStyle=orthogonalEdgeStyle;rounded=0;orthogonalLoop=1;jettySize=auto;html=1;entryX=0.5;entryY=0;entryDx=0;entryDy=0;" edge="1" parent="1" source="G8ocVJqHx-bSbICpe_nQ-1" target="qBp_ESi1bDnbtn0_1GRl-1">
          <mxGeometry relative="1" as="geometry" />
        </mxCell>
        <mxCell id="qBp_ESi1bDnbtn0_1GRl-3" style="edgeStyle=orthogonalEdgeStyle;rounded=0;orthogonalLoop=1;jettySize=auto;html=1;entryX=0.5;entryY=0;entryDx=0;entryDy=0;" edge="1" parent="1" source="G8ocVJqHx-bSbICpe_nQ-1" target="G8ocVJqHx-bSbICpe_nQ-4">
          <mxGeometry relative="1" as="geometry" />
        </mxCell>
        <mxCell id="G8ocVJqHx-bSbICpe_nQ-1" value="Select plan type" style="rounded=1;whiteSpace=wrap;html=1;" vertex="1" parent="1">
          <mxGeometry x="340" y="50" width="120" height="60" as="geometry" />
        </mxCell>
        <mxCell id="kaH39Q3h8jqtQPZv27CG-2" value="" style="edgeStyle=orthogonalEdgeStyle;rounded=0;orthogonalLoop=1;jettySize=auto;html=1;" edge="1" parent="1" source="G8ocVJqHx-bSbICpe_nQ-4" target="kaH39Q3h8jqtQPZv27CG-1">
          <mxGeometry relative="1" as="geometry" />
        </mxCell>
        <mxCell id="G8ocVJqHx-bSbICpe_nQ-4" value="Training" style="whiteSpace=wrap;html=1;rounded=1;arcSize=0;" vertex="1" parent="1">
          <mxGeometry x="340" y="150" width="120" height="60" as="geometry" />
        </mxCell>
        <mxCell id="7X809sqoX4lx-Iby0o5i-2" value="" style="edgeStyle=orthogonalEdgeStyle;rounded=0;orthogonalLoop=1;jettySize=auto;html=1;" edge="1" parent="1" source="qBp_ESi1bDnbtn0_1GRl-1" target="7X809sqoX4lx-Iby0o5i-1">
          <mxGeometry relative="1" as="geometry" />
        </mxCell>
        <mxCell id="qBp_ESi1bDnbtn0_1GRl-1" value="Specific exercise strength improvement (advanced)" style="whiteSpace=wrap;html=1;rounded=1;arcSize=0;" vertex="1" parent="1">
          <mxGeometry x="510" y="150" width="120" height="60" as="geometry" />
        </mxCell>
        <mxCell id="7X809sqoX4lx-Iby0o5i-4" value="" style="edgeStyle=orthogonalEdgeStyle;rounded=0;orthogonalLoop=1;jettySize=auto;html=1;" edge="1" parent="1" source="7X809sqoX4lx-Iby0o5i-1" target="7X809sqoX4lx-Iby0o5i-3">
          <mxGeometry relative="1" as="geometry" />
        </mxCell>
        <mxCell id="7X809sqoX4lx-Iby0o5i-1" value="Choose exercise" style="whiteSpace=wrap;html=1;rounded=1;arcSize=0;" vertex="1" parent="1">
          <mxGeometry x="510" y="240" width="120" height="60" as="geometry" />
        </mxCell>
        <mxCell id="7X809sqoX4lx-Iby0o5i-6" value="" style="edgeStyle=orthogonalEdgeStyle;rounded=0;orthogonalLoop=1;jettySize=auto;html=1;" edge="1" parent="1" source="7X809sqoX4lx-Iby0o5i-3" target="7X809sqoX4lx-Iby0o5i-5">
          <mxGeometry relative="1" as="geometry" />
        </mxCell>
        <mxCell id="7X809sqoX4lx-Iby0o5i-3" value="Choose desired timeframe and goal" style="whiteSpace=wrap;html=1;rounded=1;arcSize=0;" vertex="1" parent="1">
          <mxGeometry x="510" y="330" width="120" height="60" as="geometry" />
        </mxCell>
        <mxCell id="7X809sqoX4lx-Iby0o5i-5" value="Get workout plan" style="whiteSpace=wrap;html=1;rounded=1;arcSize=0;" vertex="1" parent="1">
          <mxGeometry x="510" y="420" width="120" height="60" as="geometry" />
        </mxCell>
        <mxCell id="kaH39Q3h8jqtQPZv27CG-4" value="" style="edgeStyle=orthogonalEdgeStyle;rounded=0;orthogonalLoop=1;jettySize=auto;html=1;" edge="1" parent="1" source="kaH39Q3h8jqtQPZv27CG-1" target="kaH39Q3h8jqtQPZv27CG-3">
          <mxGeometry relative="1" as="geometry" />
        </mxCell>
        <mxCell id="kaH39Q3h8jqtQPZv27CG-1" value="Choose goal (strength/&amp;nbsp;aesthetic/ athleticism)" style="whiteSpace=wrap;html=1;rounded=1;arcSize=0;" vertex="1" parent="1">
          <mxGeometry x="340" y="240" width="120" height="60" as="geometry" />
        </mxCell>
        <mxCell id="kaH39Q3h8jqtQPZv27CG-6" value="" style="edgeStyle=orthogonalEdgeStyle;rounded=0;orthogonalLoop=1;jettySize=auto;html=1;" edge="1" parent="1" source="kaH39Q3h8jqtQPZv27CG-3" target="kaH39Q3h8jqtQPZv27CG-5">
          <mxGeometry relative="1" as="geometry" />
        </mxCell>
        <mxCell id="kaH39Q3h8jqtQPZv27CG-3" value="Set workout frequency" style="whiteSpace=wrap;html=1;rounded=1;arcSize=0;" vertex="1" parent="1">
          <mxGeometry x="340" y="330" width="120" height="60" as="geometry" />
        </mxCell>
        <mxCell id="kaH39Q3h8jqtQPZv27CG-8" style="edgeStyle=orthogonalEdgeStyle;rounded=0;orthogonalLoop=1;jettySize=auto;html=1;entryX=0.5;entryY=0;entryDx=0;entryDy=0;" edge="1" parent="1" source="kaH39Q3h8jqtQPZv27CG-5" target="kaH39Q3h8jqtQPZv27CG-7">
          <mxGeometry relative="1" as="geometry" />
        </mxCell>
        <mxCell id="kaH39Q3h8jqtQPZv27CG-5" value="Set expertise level" style="whiteSpace=wrap;html=1;rounded=1;arcSize=0;" vertex="1" parent="1">
          <mxGeometry x="340" y="420" width="120" height="60" as="geometry" />
        </mxCell>
        <mxCell id="kaH39Q3h8jqtQPZv27CG-7" value="Get workout plan" style="whiteSpace=wrap;html=1;rounded=1;arcSize=0;" vertex="1" parent="1">
          <mxGeometry x="340" y="510" width="120" height="60" as="geometry" />
        </mxCell>
      </root>
    </mxGraphModel>
  </diagram>
</mxfile>
